<mxfile host="app.diagrams.net" agent="Mozilla/5.0 (Macintosh; Intel Mac OS X 10_15_7) AppleWebKit/537.36 (KHTML, like Gecko) Chrome/130.0.0.0 Safari/537.36" version="24.8.3">
  <diagram id="C5RBs43oDa-KdzZeNtuy" name="Page-1">
    <mxGraphModel dx="4014" dy="1931" grid="1" gridSize="10" guides="1" tooltips="1" connect="1" arrows="1" fold="1" page="1" pageScale="1" pageWidth="827" pageHeight="1169" math="0" shadow="0">
      <root>
        <mxCell id="WIyWlLk6GJQsqaUBKTNV-0" />
        <mxCell id="WIyWlLk6GJQsqaUBKTNV-1" parent="WIyWlLk6GJQsqaUBKTNV-0" />
        <mxCell id="1c8VSmIuXmgOSTZP4LNL-0" value="" style="group" vertex="1" connectable="0" parent="WIyWlLk6GJQsqaUBKTNV-1">
          <mxGeometry x="-170" y="900" width="720" height="560" as="geometry" />
        </mxCell>
        <mxCell id="Wz143nNGYcCUO_f9Ym2T-32" value="" style="edgeStyle=orthogonalEdgeStyle;rounded=0;orthogonalLoop=1;jettySize=auto;html=1;" parent="1c8VSmIuXmgOSTZP4LNL-0" source="Wz143nNGYcCUO_f9Ym2T-30" target="Wz143nNGYcCUO_f9Ym2T-31" edge="1">
          <mxGeometry relative="1" as="geometry" />
        </mxCell>
        <mxCell id="Wz143nNGYcCUO_f9Ym2T-30" value="开始" style="ellipse;whiteSpace=wrap;html=1;aspect=fixed;" parent="1c8VSmIuXmgOSTZP4LNL-0" vertex="1">
          <mxGeometry y="70" width="40" height="40" as="geometry" />
        </mxCell>
        <mxCell id="Wz143nNGYcCUO_f9Ym2T-34" value="" style="edgeStyle=orthogonalEdgeStyle;rounded=0;orthogonalLoop=1;jettySize=auto;html=1;" parent="1c8VSmIuXmgOSTZP4LNL-0" source="Wz143nNGYcCUO_f9Ym2T-31" target="Wz143nNGYcCUO_f9Ym2T-33" edge="1">
          <mxGeometry relative="1" as="geometry" />
        </mxCell>
        <mxCell id="Wz143nNGYcCUO_f9Ym2T-37" value="是" style="edgeLabel;html=1;align=center;verticalAlign=middle;resizable=0;points=[];" parent="Wz143nNGYcCUO_f9Ym2T-34" vertex="1" connectable="0">
          <mxGeometry x="-0.1667" relative="1" as="geometry">
            <mxPoint as="offset" />
          </mxGeometry>
        </mxCell>
        <mxCell id="Wz143nNGYcCUO_f9Ym2T-39" value="" style="edgeStyle=orthogonalEdgeStyle;rounded=0;orthogonalLoop=1;jettySize=auto;html=1;" parent="1c8VSmIuXmgOSTZP4LNL-0" source="Wz143nNGYcCUO_f9Ym2T-31" target="Wz143nNGYcCUO_f9Ym2T-38" edge="1">
          <mxGeometry relative="1" as="geometry" />
        </mxCell>
        <mxCell id="Wz143nNGYcCUO_f9Ym2T-31" value="是否有账号" style="rhombus;whiteSpace=wrap;html=1;" parent="1c8VSmIuXmgOSTZP4LNL-0" vertex="1">
          <mxGeometry x="100" y="50" width="80" height="80" as="geometry" />
        </mxCell>
        <mxCell id="Wz143nNGYcCUO_f9Ym2T-36" value="" style="edgeStyle=orthogonalEdgeStyle;rounded=0;orthogonalLoop=1;jettySize=auto;html=1;" parent="1c8VSmIuXmgOSTZP4LNL-0" source="Wz143nNGYcCUO_f9Ym2T-33" target="Wz143nNGYcCUO_f9Ym2T-35" edge="1">
          <mxGeometry relative="1" as="geometry" />
        </mxCell>
        <mxCell id="Wz143nNGYcCUO_f9Ym2T-33" value="登录页" style="whiteSpace=wrap;html=1;" parent="1c8VSmIuXmgOSTZP4LNL-0" vertex="1">
          <mxGeometry x="240" y="60" width="120" height="60" as="geometry" />
        </mxCell>
        <mxCell id="Wz143nNGYcCUO_f9Ym2T-46" value="" style="edgeStyle=orthogonalEdgeStyle;rounded=0;orthogonalLoop=1;jettySize=auto;html=1;" parent="1c8VSmIuXmgOSTZP4LNL-0" source="Wz143nNGYcCUO_f9Ym2T-35" target="Wz143nNGYcCUO_f9Ym2T-45" edge="1">
          <mxGeometry relative="1" as="geometry" />
        </mxCell>
        <mxCell id="Wz143nNGYcCUO_f9Ym2T-48" value="是" style="edgeLabel;html=1;align=center;verticalAlign=middle;resizable=0;points=[];" parent="Wz143nNGYcCUO_f9Ym2T-46" vertex="1" connectable="0">
          <mxGeometry y="2" relative="1" as="geometry">
            <mxPoint as="offset" />
          </mxGeometry>
        </mxCell>
        <mxCell id="Wz143nNGYcCUO_f9Ym2T-47" style="edgeStyle=orthogonalEdgeStyle;rounded=0;orthogonalLoop=1;jettySize=auto;html=1;entryX=0.5;entryY=0;entryDx=0;entryDy=0;" parent="1c8VSmIuXmgOSTZP4LNL-0" source="Wz143nNGYcCUO_f9Ym2T-35" target="Wz143nNGYcCUO_f9Ym2T-33" edge="1">
          <mxGeometry relative="1" as="geometry">
            <Array as="points">
              <mxPoint x="500" />
              <mxPoint x="300" />
            </Array>
          </mxGeometry>
        </mxCell>
        <mxCell id="Wz143nNGYcCUO_f9Ym2T-49" value="否" style="edgeLabel;html=1;align=center;verticalAlign=middle;resizable=0;points=[];" parent="Wz143nNGYcCUO_f9Ym2T-47" vertex="1" connectable="0">
          <mxGeometry x="-0.0645" y="1" relative="1" as="geometry">
            <mxPoint as="offset" />
          </mxGeometry>
        </mxCell>
        <mxCell id="Wz143nNGYcCUO_f9Ym2T-35" value="登录是否成功" style="rhombus;whiteSpace=wrap;html=1;" parent="1c8VSmIuXmgOSTZP4LNL-0" vertex="1">
          <mxGeometry x="460" y="50" width="80" height="80" as="geometry" />
        </mxCell>
        <mxCell id="Wz143nNGYcCUO_f9Ym2T-41" value="" style="edgeStyle=orthogonalEdgeStyle;rounded=0;orthogonalLoop=1;jettySize=auto;html=1;" parent="1c8VSmIuXmgOSTZP4LNL-0" source="Wz143nNGYcCUO_f9Ym2T-38" target="Wz143nNGYcCUO_f9Ym2T-40" edge="1">
          <mxGeometry relative="1" as="geometry" />
        </mxCell>
        <mxCell id="Wz143nNGYcCUO_f9Ym2T-38" value="注册用户" style="whiteSpace=wrap;html=1;" parent="1c8VSmIuXmgOSTZP4LNL-0" vertex="1">
          <mxGeometry x="80" y="220" width="120" height="60" as="geometry" />
        </mxCell>
        <mxCell id="Wz143nNGYcCUO_f9Ym2T-43" value="" style="edgeStyle=orthogonalEdgeStyle;rounded=0;orthogonalLoop=1;jettySize=auto;html=1;" parent="1c8VSmIuXmgOSTZP4LNL-0" source="Wz143nNGYcCUO_f9Ym2T-40" target="Wz143nNGYcCUO_f9Ym2T-42" edge="1">
          <mxGeometry relative="1" as="geometry" />
        </mxCell>
        <mxCell id="Wz143nNGYcCUO_f9Ym2T-40" value="填写：手机号&lt;br&gt;密码&lt;br&gt;名称" style="whiteSpace=wrap;html=1;" parent="1c8VSmIuXmgOSTZP4LNL-0" vertex="1">
          <mxGeometry x="80" y="360" width="120" height="60" as="geometry" />
        </mxCell>
        <mxCell id="Wz143nNGYcCUO_f9Ym2T-44" style="edgeStyle=orthogonalEdgeStyle;rounded=0;orthogonalLoop=1;jettySize=auto;html=1;entryX=0.5;entryY=1;entryDx=0;entryDy=0;" parent="1c8VSmIuXmgOSTZP4LNL-0" source="Wz143nNGYcCUO_f9Ym2T-42" target="Wz143nNGYcCUO_f9Ym2T-35" edge="1">
          <mxGeometry relative="1" as="geometry" />
        </mxCell>
        <mxCell id="Wz143nNGYcCUO_f9Ym2T-42" value="注册成功，自动登录" style="whiteSpace=wrap;html=1;" parent="1c8VSmIuXmgOSTZP4LNL-0" vertex="1">
          <mxGeometry x="80" y="500" width="120" height="60" as="geometry" />
        </mxCell>
        <mxCell id="Wz143nNGYcCUO_f9Ym2T-45" value="进入首页" style="whiteSpace=wrap;html=1;" parent="1c8VSmIuXmgOSTZP4LNL-0" vertex="1">
          <mxGeometry x="600" y="60" width="120" height="60" as="geometry" />
        </mxCell>
        <mxCell id="1c8VSmIuXmgOSTZP4LNL-1" value="" style="group" vertex="1" connectable="0" parent="WIyWlLk6GJQsqaUBKTNV-1">
          <mxGeometry x="-390" y="80" width="650" height="630" as="geometry" />
        </mxCell>
        <mxCell id="Wz143nNGYcCUO_f9Ym2T-0" value="User" style="swimlane;fontStyle=0;childLayout=stackLayout;horizontal=1;startSize=30;horizontalStack=0;resizeParent=1;resizeParentMax=0;resizeLast=0;collapsible=1;marginBottom=0;whiteSpace=wrap;html=1;" parent="1c8VSmIuXmgOSTZP4LNL-1" vertex="1">
          <mxGeometry width="140" height="120" as="geometry" />
        </mxCell>
        <mxCell id="Wz143nNGYcCUO_f9Ym2T-1" value="Name" style="text;strokeColor=none;fillColor=none;align=left;verticalAlign=middle;spacingLeft=4;spacingRight=4;overflow=hidden;points=[[0,0.5],[1,0.5]];portConstraint=eastwest;rotatable=0;whiteSpace=wrap;html=1;" parent="Wz143nNGYcCUO_f9Ym2T-0" vertex="1">
          <mxGeometry y="30" width="140" height="30" as="geometry" />
        </mxCell>
        <mxCell id="Wz143nNGYcCUO_f9Ym2T-2" value="Phone Number" style="text;strokeColor=none;fillColor=none;align=left;verticalAlign=middle;spacingLeft=4;spacingRight=4;overflow=hidden;points=[[0,0.5],[1,0.5]];portConstraint=eastwest;rotatable=0;whiteSpace=wrap;html=1;" parent="Wz143nNGYcCUO_f9Ym2T-0" vertex="1">
          <mxGeometry y="60" width="140" height="30" as="geometry" />
        </mxCell>
        <mxCell id="Wz143nNGYcCUO_f9Ym2T-3" value="Password" style="text;strokeColor=none;fillColor=none;align=left;verticalAlign=middle;spacingLeft=4;spacingRight=4;overflow=hidden;points=[[0,0.5],[1,0.5]];portConstraint=eastwest;rotatable=0;whiteSpace=wrap;html=1;" parent="Wz143nNGYcCUO_f9Ym2T-0" vertex="1">
          <mxGeometry y="90" width="140" height="30" as="geometry" />
        </mxCell>
        <mxCell id="Wz143nNGYcCUO_f9Ym2T-24" style="edgeStyle=orthogonalEdgeStyle;rounded=0;orthogonalLoop=1;jettySize=auto;html=1;entryX=0.5;entryY=0;entryDx=0;entryDy=0;" parent="1c8VSmIuXmgOSTZP4LNL-1" source="Wz143nNGYcCUO_f9Ym2T-4" target="Wz143nNGYcCUO_f9Ym2T-8" edge="1">
          <mxGeometry relative="1" as="geometry" />
        </mxCell>
        <mxCell id="Wz143nNGYcCUO_f9Ym2T-25" value="1:n" style="edgeLabel;html=1;align=center;verticalAlign=middle;resizable=0;points=[];" parent="Wz143nNGYcCUO_f9Ym2T-24" vertex="1" connectable="0">
          <mxGeometry x="-0.0571" y="-1" relative="1" as="geometry">
            <mxPoint as="offset" />
          </mxGeometry>
        </mxCell>
        <mxCell id="Wz143nNGYcCUO_f9Ym2T-4" value="Supplier" style="swimlane;fontStyle=0;childLayout=stackLayout;horizontal=1;startSize=30;horizontalStack=0;resizeParent=1;resizeParentMax=0;resizeLast=0;collapsible=1;marginBottom=0;whiteSpace=wrap;html=1;" parent="1c8VSmIuXmgOSTZP4LNL-1" vertex="1">
          <mxGeometry x="310" width="140" height="120" as="geometry" />
        </mxCell>
        <mxCell id="Wz143nNGYcCUO_f9Ym2T-5" value="Name" style="text;strokeColor=none;fillColor=none;align=left;verticalAlign=middle;spacingLeft=4;spacingRight=4;overflow=hidden;points=[[0,0.5],[1,0.5]];portConstraint=eastwest;rotatable=0;whiteSpace=wrap;html=1;" parent="Wz143nNGYcCUO_f9Ym2T-4" vertex="1">
          <mxGeometry y="30" width="140" height="30" as="geometry" />
        </mxCell>
        <mxCell id="Wz143nNGYcCUO_f9Ym2T-6" value="Address" style="text;strokeColor=none;fillColor=none;align=left;verticalAlign=middle;spacingLeft=4;spacingRight=4;overflow=hidden;points=[[0,0.5],[1,0.5]];portConstraint=eastwest;rotatable=0;whiteSpace=wrap;html=1;" parent="Wz143nNGYcCUO_f9Ym2T-4" vertex="1">
          <mxGeometry y="60" width="140" height="30" as="geometry" />
        </mxCell>
        <mxCell id="Wz143nNGYcCUO_f9Ym2T-7" value="Phone Number" style="text;strokeColor=none;fillColor=none;align=left;verticalAlign=middle;spacingLeft=4;spacingRight=4;overflow=hidden;points=[[0,0.5],[1,0.5]];portConstraint=eastwest;rotatable=0;whiteSpace=wrap;html=1;" parent="Wz143nNGYcCUO_f9Ym2T-4" vertex="1">
          <mxGeometry y="90" width="140" height="30" as="geometry" />
        </mxCell>
        <mxCell id="Wz143nNGYcCUO_f9Ym2T-27" style="edgeStyle=orthogonalEdgeStyle;rounded=0;orthogonalLoop=1;jettySize=auto;html=1;entryX=0;entryY=0.5;entryDx=0;entryDy=0;" parent="1c8VSmIuXmgOSTZP4LNL-1" source="Wz143nNGYcCUO_f9Ym2T-8" target="Wz143nNGYcCUO_f9Ym2T-13" edge="1">
          <mxGeometry relative="1" as="geometry" />
        </mxCell>
        <mxCell id="Wz143nNGYcCUO_f9Ym2T-8" value="Product" style="swimlane;fontStyle=0;childLayout=stackLayout;horizontal=1;startSize=30;horizontalStack=0;resizeParent=1;resizeParentMax=0;resizeLast=0;collapsible=1;marginBottom=0;whiteSpace=wrap;html=1;" parent="1c8VSmIuXmgOSTZP4LNL-1" vertex="1">
          <mxGeometry x="310" y="200" width="140" height="150" as="geometry" />
        </mxCell>
        <mxCell id="Wz143nNGYcCUO_f9Ym2T-9" value="Name" style="text;strokeColor=none;fillColor=none;align=left;verticalAlign=middle;spacingLeft=4;spacingRight=4;overflow=hidden;points=[[0,0.5],[1,0.5]];portConstraint=eastwest;rotatable=0;whiteSpace=wrap;html=1;" parent="Wz143nNGYcCUO_f9Ym2T-8" vertex="1">
          <mxGeometry y="30" width="140" height="30" as="geometry" />
        </mxCell>
        <mxCell id="Wz143nNGYcCUO_f9Ym2T-10" value="Price" style="text;strokeColor=none;fillColor=none;align=left;verticalAlign=middle;spacingLeft=4;spacingRight=4;overflow=hidden;points=[[0,0.5],[1,0.5]];portConstraint=eastwest;rotatable=0;whiteSpace=wrap;html=1;" parent="Wz143nNGYcCUO_f9Ym2T-8" vertex="1">
          <mxGeometry y="60" width="140" height="30" as="geometry" />
        </mxCell>
        <mxCell id="Wz143nNGYcCUO_f9Ym2T-11" value="Supplier" style="text;strokeColor=none;fillColor=none;align=left;verticalAlign=middle;spacingLeft=4;spacingRight=4;overflow=hidden;points=[[0,0.5],[1,0.5]];portConstraint=eastwest;rotatable=0;whiteSpace=wrap;html=1;" parent="Wz143nNGYcCUO_f9Ym2T-8" vertex="1">
          <mxGeometry y="90" width="140" height="30" as="geometry" />
        </mxCell>
        <mxCell id="Wz143nNGYcCUO_f9Ym2T-22" value="MinCount" style="text;strokeColor=none;fillColor=none;align=left;verticalAlign=middle;spacingLeft=4;spacingRight=4;overflow=hidden;points=[[0,0.5],[1,0.5]];portConstraint=eastwest;rotatable=0;whiteSpace=wrap;html=1;" parent="Wz143nNGYcCUO_f9Ym2T-8" vertex="1">
          <mxGeometry y="120" width="140" height="30" as="geometry" />
        </mxCell>
        <mxCell id="Wz143nNGYcCUO_f9Ym2T-12" value="Indent" style="swimlane;fontStyle=0;childLayout=stackLayout;horizontal=1;startSize=30;horizontalStack=0;resizeParent=1;resizeParentMax=0;resizeLast=0;collapsible=1;marginBottom=0;whiteSpace=wrap;html=1;" parent="1c8VSmIuXmgOSTZP4LNL-1" vertex="1">
          <mxGeometry x="204" y="500" width="140" height="120" as="geometry" />
        </mxCell>
        <mxCell id="Wz143nNGYcCUO_f9Ym2T-13" value="Product" style="text;strokeColor=none;fillColor=none;align=left;verticalAlign=middle;spacingLeft=4;spacingRight=4;overflow=hidden;points=[[0,0.5],[1,0.5]];portConstraint=eastwest;rotatable=0;whiteSpace=wrap;html=1;" parent="Wz143nNGYcCUO_f9Ym2T-12" vertex="1">
          <mxGeometry y="30" width="140" height="30" as="geometry" />
        </mxCell>
        <mxCell id="Wz143nNGYcCUO_f9Ym2T-14" value="Count" style="text;strokeColor=none;fillColor=none;align=left;verticalAlign=middle;spacingLeft=4;spacingRight=4;overflow=hidden;points=[[0,0.5],[1,0.5]];portConstraint=eastwest;rotatable=0;whiteSpace=wrap;html=1;" parent="Wz143nNGYcCUO_f9Ym2T-12" vertex="1">
          <mxGeometry y="60" width="140" height="30" as="geometry" />
        </mxCell>
        <mxCell id="Wz143nNGYcCUO_f9Ym2T-16" value="Date" style="text;strokeColor=none;fillColor=none;align=left;verticalAlign=middle;spacingLeft=4;spacingRight=4;overflow=hidden;points=[[0,0.5],[1,0.5]];portConstraint=eastwest;rotatable=0;whiteSpace=wrap;html=1;" parent="Wz143nNGYcCUO_f9Ym2T-12" vertex="1">
          <mxGeometry y="90" width="140" height="30" as="geometry" />
        </mxCell>
        <mxCell id="Wz143nNGYcCUO_f9Ym2T-17" value="Invoice" style="swimlane;fontStyle=0;childLayout=stackLayout;horizontal=1;startSize=30;horizontalStack=0;resizeParent=1;resizeParentMax=0;resizeLast=0;collapsible=1;marginBottom=0;whiteSpace=wrap;html=1;" parent="1c8VSmIuXmgOSTZP4LNL-1" vertex="1">
          <mxGeometry x="510" y="480" width="140" height="150" as="geometry" />
        </mxCell>
        <mxCell id="Wz143nNGYcCUO_f9Ym2T-18" value="Product" style="text;strokeColor=none;fillColor=none;align=left;verticalAlign=middle;spacingLeft=4;spacingRight=4;overflow=hidden;points=[[0,0.5],[1,0.5]];portConstraint=eastwest;rotatable=0;whiteSpace=wrap;html=1;" parent="Wz143nNGYcCUO_f9Ym2T-17" vertex="1">
          <mxGeometry y="30" width="140" height="30" as="geometry" />
        </mxCell>
        <mxCell id="Wz143nNGYcCUO_f9Ym2T-19" value="Count" style="text;strokeColor=none;fillColor=none;align=left;verticalAlign=middle;spacingLeft=4;spacingRight=4;overflow=hidden;points=[[0,0.5],[1,0.5]];portConstraint=eastwest;rotatable=0;whiteSpace=wrap;html=1;" parent="Wz143nNGYcCUO_f9Ym2T-17" vertex="1">
          <mxGeometry y="60" width="140" height="30" as="geometry" />
        </mxCell>
        <mxCell id="Wz143nNGYcCUO_f9Ym2T-20" value="SoldPrice" style="text;strokeColor=none;fillColor=none;align=left;verticalAlign=middle;spacingLeft=4;spacingRight=4;overflow=hidden;points=[[0,0.5],[1,0.5]];portConstraint=eastwest;rotatable=0;whiteSpace=wrap;html=1;" parent="Wz143nNGYcCUO_f9Ym2T-17" vertex="1">
          <mxGeometry y="90" width="140" height="30" as="geometry" />
        </mxCell>
        <mxCell id="Wz143nNGYcCUO_f9Ym2T-21" value="Date" style="text;strokeColor=none;fillColor=none;align=left;verticalAlign=middle;spacingLeft=4;spacingRight=4;overflow=hidden;points=[[0,0.5],[1,0.5]];portConstraint=eastwest;rotatable=0;whiteSpace=wrap;html=1;" parent="Wz143nNGYcCUO_f9Ym2T-17" vertex="1">
          <mxGeometry y="120" width="140" height="30" as="geometry" />
        </mxCell>
        <mxCell id="Wz143nNGYcCUO_f9Ym2T-23" style="edgeStyle=orthogonalEdgeStyle;rounded=0;orthogonalLoop=1;jettySize=auto;html=1;" parent="1c8VSmIuXmgOSTZP4LNL-1" source="Wz143nNGYcCUO_f9Ym2T-2" target="Wz143nNGYcCUO_f9Ym2T-6" edge="1">
          <mxGeometry relative="1" as="geometry" />
        </mxCell>
        <mxCell id="Wz143nNGYcCUO_f9Ym2T-26" value="1:n" style="edgeLabel;html=1;align=center;verticalAlign=middle;resizable=0;points=[];" parent="Wz143nNGYcCUO_f9Ym2T-23" vertex="1" connectable="0">
          <mxGeometry x="-0.1176" y="-1" relative="1" as="geometry">
            <mxPoint as="offset" />
          </mxGeometry>
        </mxCell>
        <mxCell id="Wz143nNGYcCUO_f9Ym2T-28" style="edgeStyle=orthogonalEdgeStyle;rounded=0;orthogonalLoop=1;jettySize=auto;html=1;" parent="1c8VSmIuXmgOSTZP4LNL-1" source="Wz143nNGYcCUO_f9Ym2T-10" target="Wz143nNGYcCUO_f9Ym2T-18" edge="1">
          <mxGeometry relative="1" as="geometry" />
        </mxCell>
        <mxCell id="1c8VSmIuXmgOSTZP4LNL-2" value="" style="group" vertex="1" connectable="0" parent="WIyWlLk6GJQsqaUBKTNV-1">
          <mxGeometry x="750" y="360" width="1760" height="1960" as="geometry" />
        </mxCell>
        <mxCell id="Wz143nNGYcCUO_f9Ym2T-50" value="" style="rounded=1;whiteSpace=wrap;html=1;" parent="1c8VSmIuXmgOSTZP4LNL-2" vertex="1">
          <mxGeometry y="600" width="250" height="380" as="geometry" />
        </mxCell>
        <mxCell id="Wz143nNGYcCUO_f9Ym2T-51" value="输入手机号" style="rounded=1;whiteSpace=wrap;html=1;fillColor=#f5f5f5;fontColor=#333333;strokeColor=#666666;" parent="1c8VSmIuXmgOSTZP4LNL-2" vertex="1">
          <mxGeometry x="40" y="700" width="170" height="30" as="geometry" />
        </mxCell>
        <mxCell id="Wz143nNGYcCUO_f9Ym2T-52" value="输入密码" style="rounded=1;whiteSpace=wrap;html=1;fillColor=#f5f5f5;fontColor=#333333;strokeColor=#666666;" parent="1c8VSmIuXmgOSTZP4LNL-2" vertex="1">
          <mxGeometry x="40" y="760" width="170" height="30" as="geometry" />
        </mxCell>
        <mxCell id="Wz143nNGYcCUO_f9Ym2T-57" style="edgeStyle=orthogonalEdgeStyle;rounded=0;orthogonalLoop=1;jettySize=auto;html=1;entryX=0;entryY=0.5;entryDx=0;entryDy=0;" parent="1c8VSmIuXmgOSTZP4LNL-2" source="Wz143nNGYcCUO_f9Ym2T-53" target="Wz143nNGYcCUO_f9Ym2T-56" edge="1">
          <mxGeometry relative="1" as="geometry" />
        </mxCell>
        <mxCell id="Wz143nNGYcCUO_f9Ym2T-53" value="登录" style="rounded=1;whiteSpace=wrap;html=1;fillColor=#d5e8d4;strokeColor=#82b366;" parent="1c8VSmIuXmgOSTZP4LNL-2" vertex="1">
          <mxGeometry x="60" y="820" width="130" height="30" as="geometry" />
        </mxCell>
        <mxCell id="Wz143nNGYcCUO_f9Ym2T-54" value="&lt;font color=&quot;#7ea6e0&quot;&gt;注册&lt;/font&gt;" style="text;html=1;align=center;verticalAlign=middle;whiteSpace=wrap;rounded=0;" parent="1c8VSmIuXmgOSTZP4LNL-2" vertex="1">
          <mxGeometry x="95" y="925" width="60" height="30" as="geometry" />
        </mxCell>
        <mxCell id="Wz143nNGYcCUO_f9Ym2T-55" value="&lt;b&gt;&lt;font style=&quot;font-size: 18px;&quot;&gt;销售管理系统&lt;/font&gt;&lt;/b&gt;" style="text;html=1;align=center;verticalAlign=middle;whiteSpace=wrap;rounded=0;" parent="1c8VSmIuXmgOSTZP4LNL-2" vertex="1">
          <mxGeometry x="67.5" y="620" width="115" height="30" as="geometry" />
        </mxCell>
        <mxCell id="Wz143nNGYcCUO_f9Ym2T-56" value="" style="rounded=1;whiteSpace=wrap;html=1;" parent="1c8VSmIuXmgOSTZP4LNL-2" vertex="1">
          <mxGeometry x="360" y="600" width="250" height="370" as="geometry" />
        </mxCell>
        <mxCell id="Wz143nNGYcCUO_f9Ym2T-63" value="&lt;b&gt;&lt;font style=&quot;font-size: 18px;&quot;&gt;首页&lt;/font&gt;&lt;/b&gt;" style="text;html=1;align=center;verticalAlign=middle;whiteSpace=wrap;rounded=0;" parent="1c8VSmIuXmgOSTZP4LNL-2" vertex="1">
          <mxGeometry x="427.5" y="600" width="115" height="30" as="geometry" />
        </mxCell>
        <mxCell id="Wz143nNGYcCUO_f9Ym2T-65" value="&lt;font color=&quot;#7ea6e0&quot;&gt;退出&lt;/font&gt;" style="text;html=1;align=center;verticalAlign=middle;whiteSpace=wrap;rounded=0;" parent="1c8VSmIuXmgOSTZP4LNL-2" vertex="1">
          <mxGeometry x="366" y="600" width="60" height="30" as="geometry" />
        </mxCell>
        <mxCell id="Wz143nNGYcCUO_f9Ym2T-66" value="" style="group" parent="1c8VSmIuXmgOSTZP4LNL-2" vertex="1" connectable="0">
          <mxGeometry x="397.5" y="690" width="175" height="180" as="geometry" />
        </mxCell>
        <mxCell id="Wz143nNGYcCUO_f9Ym2T-58" value="&lt;b&gt;&lt;font style=&quot;font-size: 16px;&quot;&gt;进货&lt;/font&gt;&lt;/b&gt;" style="rounded=1;whiteSpace=wrap;html=1;fillColor=#dae8fc;strokeColor=#6c8ebf;" parent="Wz143nNGYcCUO_f9Ym2T-66" vertex="1">
          <mxGeometry width="78.75" height="81" as="geometry" />
        </mxCell>
        <mxCell id="Wz143nNGYcCUO_f9Ym2T-60" value="&lt;b&gt;&lt;font style=&quot;font-size: 16px;&quot;&gt;库存&lt;/font&gt;&lt;/b&gt;" style="rounded=1;whiteSpace=wrap;html=1;fillColor=#ffe6cc;strokeColor=#d79b00;" parent="Wz143nNGYcCUO_f9Ym2T-66" vertex="1">
          <mxGeometry y="99" width="78.75" height="81" as="geometry" />
        </mxCell>
        <mxCell id="Wz143nNGYcCUO_f9Ym2T-61" value="&lt;b&gt;&lt;font style=&quot;font-size: 16px;&quot;&gt;出货&lt;/font&gt;&lt;/b&gt;" style="rounded=1;whiteSpace=wrap;html=1;fillColor=#d5e8d4;strokeColor=#82b366;" parent="Wz143nNGYcCUO_f9Ym2T-66" vertex="1">
          <mxGeometry x="96.25" width="78.75" height="81" as="geometry" />
        </mxCell>
        <mxCell id="Wz143nNGYcCUO_f9Ym2T-62" value="&lt;span style=&quot;font-size: 16px;&quot;&gt;&lt;b&gt;总览&lt;/b&gt;&lt;/span&gt;" style="rounded=1;whiteSpace=wrap;html=1;fillColor=#f8cecc;strokeColor=#b85450;" parent="Wz143nNGYcCUO_f9Ym2T-66" vertex="1">
          <mxGeometry x="96.25" y="99" width="78.75" height="81" as="geometry" />
        </mxCell>
        <mxCell id="Wz143nNGYcCUO_f9Ym2T-68" value="" style="rounded=1;whiteSpace=wrap;html=1;" parent="1c8VSmIuXmgOSTZP4LNL-2" vertex="1">
          <mxGeometry x="360" y="1020" width="250" height="370" as="geometry" />
        </mxCell>
        <mxCell id="Wz143nNGYcCUO_f9Ym2T-69" value="&lt;b&gt;&lt;font style=&quot;font-size: 18px;&quot;&gt;进货&lt;/font&gt;&lt;/b&gt;" style="text;html=1;align=center;verticalAlign=middle;whiteSpace=wrap;rounded=0;" parent="1c8VSmIuXmgOSTZP4LNL-2" vertex="1">
          <mxGeometry x="427.5" y="1030" width="115" height="30" as="geometry" />
        </mxCell>
        <mxCell id="Wz143nNGYcCUO_f9Ym2T-70" value="选择供货商" style="rounded=1;whiteSpace=wrap;html=1;fillColor=#f5f5f5;fontColor=#333333;strokeColor=#666666;" parent="1c8VSmIuXmgOSTZP4LNL-2" vertex="1">
          <mxGeometry x="400" y="1080" width="170" height="30" as="geometry" />
        </mxCell>
        <mxCell id="Wz143nNGYcCUO_f9Ym2T-71" value="选择商品" style="rounded=1;whiteSpace=wrap;html=1;fillColor=#f5f5f5;fontColor=#333333;strokeColor=#666666;" parent="1c8VSmIuXmgOSTZP4LNL-2" vertex="1">
          <mxGeometry x="400" y="1130" width="170" height="30" as="geometry" />
        </mxCell>
        <mxCell id="Wz143nNGYcCUO_f9Ym2T-72" value="进货数量" style="rounded=1;whiteSpace=wrap;html=1;fillColor=#f5f5f5;fontColor=#333333;strokeColor=#666666;" parent="1c8VSmIuXmgOSTZP4LNL-2" vertex="1">
          <mxGeometry x="400" y="1180" width="170" height="30" as="geometry" />
        </mxCell>
        <mxCell id="Wz143nNGYcCUO_f9Ym2T-73" value="商品单价" style="rounded=1;whiteSpace=wrap;html=1;fillColor=#f5f5f5;fontColor=#333333;strokeColor=#666666;" parent="1c8VSmIuXmgOSTZP4LNL-2" vertex="1">
          <mxGeometry x="400" y="1230" width="170" height="30" as="geometry" />
        </mxCell>
        <mxCell id="Wz143nNGYcCUO_f9Ym2T-74" value="&lt;b&gt;&lt;font style=&quot;font-size: 16px;&quot;&gt;进货总钱数&lt;/font&gt;&lt;/b&gt;" style="text;html=1;align=center;verticalAlign=middle;whiteSpace=wrap;rounded=0;" parent="1c8VSmIuXmgOSTZP4LNL-2" vertex="1">
          <mxGeometry x="433.75" y="1280" width="102.5" height="30" as="geometry" />
        </mxCell>
        <mxCell id="Wz143nNGYcCUO_f9Ym2T-91" value="" style="edgeStyle=orthogonalEdgeStyle;rounded=0;orthogonalLoop=1;jettySize=auto;html=1;" parent="1c8VSmIuXmgOSTZP4LNL-2" source="Wz143nNGYcCUO_f9Ym2T-75" target="Wz143nNGYcCUO_f9Ym2T-90" edge="1">
          <mxGeometry relative="1" as="geometry">
            <Array as="points">
              <mxPoint x="640" y="1365" />
              <mxPoint x="640" y="1365" />
            </Array>
          </mxGeometry>
        </mxCell>
        <mxCell id="Wz143nNGYcCUO_f9Ym2T-75" value="确定进货" style="rounded=1;whiteSpace=wrap;html=1;fillColor=#d5e8d4;strokeColor=#82b366;" parent="1c8VSmIuXmgOSTZP4LNL-2" vertex="1">
          <mxGeometry x="420" y="1350" width="130" height="30" as="geometry" />
        </mxCell>
        <mxCell id="Wz143nNGYcCUO_f9Ym2T-81" style="edgeStyle=orthogonalEdgeStyle;rounded=0;orthogonalLoop=1;jettySize=auto;html=1;" parent="1c8VSmIuXmgOSTZP4LNL-2" source="Wz143nNGYcCUO_f9Ym2T-76" target="Wz143nNGYcCUO_f9Ym2T-78" edge="1">
          <mxGeometry relative="1" as="geometry">
            <Array as="points">
              <mxPoint x="591" y="1070" />
              <mxPoint x="730" y="1070" />
            </Array>
          </mxGeometry>
        </mxCell>
        <mxCell id="Wz143nNGYcCUO_f9Ym2T-76" value="+" style="ellipse;whiteSpace=wrap;html=1;aspect=fixed;fillColor=#d5e8d4;strokeColor=#82b366;" parent="1c8VSmIuXmgOSTZP4LNL-2" vertex="1">
          <mxGeometry x="580" y="1083.75" width="22.5" height="22.5" as="geometry" />
        </mxCell>
        <mxCell id="Wz143nNGYcCUO_f9Ym2T-80" style="edgeStyle=orthogonalEdgeStyle;rounded=0;orthogonalLoop=1;jettySize=auto;html=1;" parent="1c8VSmIuXmgOSTZP4LNL-2" source="Wz143nNGYcCUO_f9Ym2T-77" target="Wz143nNGYcCUO_f9Ym2T-79" edge="1">
          <mxGeometry relative="1" as="geometry" />
        </mxCell>
        <mxCell id="Wz143nNGYcCUO_f9Ym2T-77" value="+" style="ellipse;whiteSpace=wrap;html=1;aspect=fixed;fillColor=#d5e8d4;strokeColor=#82b366;" parent="1c8VSmIuXmgOSTZP4LNL-2" vertex="1">
          <mxGeometry x="580" y="1133.75" width="22.5" height="22.5" as="geometry" />
        </mxCell>
        <mxCell id="Wz143nNGYcCUO_f9Ym2T-78" value="新增供货商" style="ellipse;shape=cloud;whiteSpace=wrap;html=1;" parent="1c8VSmIuXmgOSTZP4LNL-2" vertex="1">
          <mxGeometry x="670" y="960" width="120" height="80" as="geometry" />
        </mxCell>
        <mxCell id="Wz143nNGYcCUO_f9Ym2T-79" value="新增商品" style="ellipse;shape=cloud;whiteSpace=wrap;html=1;" parent="1c8VSmIuXmgOSTZP4LNL-2" vertex="1">
          <mxGeometry x="680" y="1083.75" width="120" height="80" as="geometry" />
        </mxCell>
        <mxCell id="Wz143nNGYcCUO_f9Ym2T-82" value="" style="rounded=1;whiteSpace=wrap;html=1;" parent="1c8VSmIuXmgOSTZP4LNL-2" vertex="1">
          <mxGeometry x="880" y="670" width="250" height="370" as="geometry" />
        </mxCell>
        <mxCell id="Wz143nNGYcCUO_f9Ym2T-83" style="edgeStyle=orthogonalEdgeStyle;rounded=0;orthogonalLoop=1;jettySize=auto;html=1;entryX=0.016;entryY=0.892;entryDx=0;entryDy=0;entryPerimeter=0;" parent="1c8VSmIuXmgOSTZP4LNL-2" source="Wz143nNGYcCUO_f9Ym2T-78" target="Wz143nNGYcCUO_f9Ym2T-82" edge="1">
          <mxGeometry relative="1" as="geometry" />
        </mxCell>
        <mxCell id="Wz143nNGYcCUO_f9Ym2T-84" value="供货商名称" style="rounded=1;whiteSpace=wrap;html=1;fillColor=#f5f5f5;fontColor=#333333;strokeColor=#666666;" parent="1c8VSmIuXmgOSTZP4LNL-2" vertex="1">
          <mxGeometry x="920" y="720" width="170" height="30" as="geometry" />
        </mxCell>
        <mxCell id="Wz143nNGYcCUO_f9Ym2T-85" value="&lt;b&gt;&lt;font style=&quot;font-size: 18px;&quot;&gt;新增供货商&lt;/font&gt;&lt;/b&gt;" style="text;html=1;align=center;verticalAlign=middle;whiteSpace=wrap;rounded=0;" parent="1c8VSmIuXmgOSTZP4LNL-2" vertex="1">
          <mxGeometry x="947.5" y="670" width="115" height="30" as="geometry" />
        </mxCell>
        <mxCell id="Wz143nNGYcCUO_f9Ym2T-86" value="地址" style="rounded=1;whiteSpace=wrap;html=1;fillColor=#f5f5f5;fontColor=#333333;strokeColor=#666666;" parent="1c8VSmIuXmgOSTZP4LNL-2" vertex="1">
          <mxGeometry x="920" y="775" width="170" height="30" as="geometry" />
        </mxCell>
        <mxCell id="Wz143nNGYcCUO_f9Ym2T-87" value="联系方式" style="rounded=1;whiteSpace=wrap;html=1;fillColor=#f5f5f5;fontColor=#333333;strokeColor=#666666;" parent="1c8VSmIuXmgOSTZP4LNL-2" vertex="1">
          <mxGeometry x="920" y="830" width="170" height="30" as="geometry" />
        </mxCell>
        <mxCell id="Wz143nNGYcCUO_f9Ym2T-93" value="" style="edgeStyle=orthogonalEdgeStyle;rounded=0;orthogonalLoop=1;jettySize=auto;html=1;" parent="1c8VSmIuXmgOSTZP4LNL-2" source="Wz143nNGYcCUO_f9Ym2T-88" target="Wz143nNGYcCUO_f9Ym2T-92" edge="1">
          <mxGeometry relative="1" as="geometry" />
        </mxCell>
        <mxCell id="Wz143nNGYcCUO_f9Ym2T-94" style="edgeStyle=orthogonalEdgeStyle;rounded=0;orthogonalLoop=1;jettySize=auto;html=1;entryX=0.75;entryY=0;entryDx=0;entryDy=0;" parent="1c8VSmIuXmgOSTZP4LNL-2" source="Wz143nNGYcCUO_f9Ym2T-88" target="Wz143nNGYcCUO_f9Ym2T-68" edge="1">
          <mxGeometry relative="1" as="geometry">
            <Array as="points">
              <mxPoint x="1005" y="930" />
              <mxPoint x="548" y="930" />
            </Array>
          </mxGeometry>
        </mxCell>
        <mxCell id="Wz143nNGYcCUO_f9Ym2T-95" value="新增成功，返回进货页面" style="edgeLabel;html=1;align=center;verticalAlign=middle;resizable=0;points=[];" parent="Wz143nNGYcCUO_f9Ym2T-94" vertex="1" connectable="0">
          <mxGeometry x="0.0025" y="-3" relative="1" as="geometry">
            <mxPoint as="offset" />
          </mxGeometry>
        </mxCell>
        <mxCell id="Wz143nNGYcCUO_f9Ym2T-88" value="确定新增" style="rounded=1;whiteSpace=wrap;html=1;fillColor=#d5e8d4;strokeColor=#82b366;" parent="1c8VSmIuXmgOSTZP4LNL-2" vertex="1">
          <mxGeometry x="940" y="1000" width="130" height="30" as="geometry" />
        </mxCell>
        <mxCell id="Wz143nNGYcCUO_f9Ym2T-129" style="edgeStyle=orthogonalEdgeStyle;rounded=0;orthogonalLoop=1;jettySize=auto;html=1;entryX=1;entryY=0.25;entryDx=0;entryDy=0;" parent="1c8VSmIuXmgOSTZP4LNL-2" source="Wz143nNGYcCUO_f9Ym2T-90" target="Wz143nNGYcCUO_f9Ym2T-108" edge="1">
          <mxGeometry relative="1" as="geometry">
            <Array as="points">
              <mxPoint x="750" y="1683" />
            </Array>
          </mxGeometry>
        </mxCell>
        <mxCell id="Wz143nNGYcCUO_f9Ym2T-130" value="进入库存页面" style="edgeLabel;html=1;align=center;verticalAlign=middle;resizable=0;points=[];" parent="Wz143nNGYcCUO_f9Ym2T-129" vertex="1" connectable="0">
          <mxGeometry x="-0.1438" y="-2" relative="1" as="geometry">
            <mxPoint as="offset" />
          </mxGeometry>
        </mxCell>
        <mxCell id="Wz143nNGYcCUO_f9Ym2T-90" value="入库，新增一条订货单" style="whiteSpace=wrap;html=1;rounded=1;" parent="1c8VSmIuXmgOSTZP4LNL-2" vertex="1">
          <mxGeometry x="670" y="1315" width="160" height="60" as="geometry" />
        </mxCell>
        <mxCell id="Wz143nNGYcCUO_f9Ym2T-156" value="" style="edgeStyle=orthogonalEdgeStyle;rounded=0;orthogonalLoop=1;jettySize=auto;html=1;" parent="1c8VSmIuXmgOSTZP4LNL-2" source="Wz143nNGYcCUO_f9Ym2T-92" target="Wz143nNGYcCUO_f9Ym2T-155" edge="1">
          <mxGeometry relative="1" as="geometry" />
        </mxCell>
        <mxCell id="Wz143nNGYcCUO_f9Ym2T-92" value="入库，新增一个供货商" style="whiteSpace=wrap;html=1;rounded=1;" parent="1c8VSmIuXmgOSTZP4LNL-2" vertex="1">
          <mxGeometry x="1240" y="965" width="150" height="60" as="geometry" />
        </mxCell>
        <mxCell id="Wz143nNGYcCUO_f9Ym2T-96" value="" style="rounded=1;whiteSpace=wrap;html=1;" parent="1c8VSmIuXmgOSTZP4LNL-2" vertex="1">
          <mxGeometry x="880" y="1120" width="250" height="370" as="geometry" />
        </mxCell>
        <mxCell id="Wz143nNGYcCUO_f9Ym2T-97" value="&lt;b&gt;&lt;font style=&quot;font-size: 18px;&quot;&gt;新增商品&lt;/font&gt;&lt;/b&gt;" style="text;html=1;align=center;verticalAlign=middle;whiteSpace=wrap;rounded=0;" parent="1c8VSmIuXmgOSTZP4LNL-2" vertex="1">
          <mxGeometry x="947.5" y="1120" width="115" height="30" as="geometry" />
        </mxCell>
        <mxCell id="Wz143nNGYcCUO_f9Ym2T-98" value="选择供货商" style="rounded=1;whiteSpace=wrap;html=1;fillColor=#f5f5f5;fontColor=#333333;strokeColor=#666666;" parent="1c8VSmIuXmgOSTZP4LNL-2" vertex="1">
          <mxGeometry x="920" y="1163.75" width="170" height="30" as="geometry" />
        </mxCell>
        <mxCell id="Wz143nNGYcCUO_f9Ym2T-99" value="商品名称" style="rounded=1;whiteSpace=wrap;html=1;fillColor=#f5f5f5;fontColor=#333333;strokeColor=#666666;" parent="1c8VSmIuXmgOSTZP4LNL-2" vertex="1">
          <mxGeometry x="920" y="1220" width="170" height="30" as="geometry" />
        </mxCell>
        <mxCell id="Wz143nNGYcCUO_f9Ym2T-100" value="单价" style="rounded=1;whiteSpace=wrap;html=1;fillColor=#f5f5f5;fontColor=#333333;strokeColor=#666666;" parent="1c8VSmIuXmgOSTZP4LNL-2" vertex="1">
          <mxGeometry x="920" y="1280" width="170" height="30" as="geometry" />
        </mxCell>
        <mxCell id="Wz143nNGYcCUO_f9Ym2T-101" value="数量" style="rounded=1;whiteSpace=wrap;html=1;fillColor=#f5f5f5;fontColor=#333333;strokeColor=#666666;" parent="1c8VSmIuXmgOSTZP4LNL-2" vertex="1">
          <mxGeometry x="920" y="1340" width="170" height="30" as="geometry" />
        </mxCell>
        <mxCell id="Wz143nNGYcCUO_f9Ym2T-102" value="库存警示值" style="rounded=1;whiteSpace=wrap;html=1;fillColor=#f5f5f5;fontColor=#333333;strokeColor=#666666;" parent="1c8VSmIuXmgOSTZP4LNL-2" vertex="1">
          <mxGeometry x="920" y="1394" width="170" height="30" as="geometry" />
        </mxCell>
        <mxCell id="Wz143nNGYcCUO_f9Ym2T-106" value="" style="edgeStyle=orthogonalEdgeStyle;rounded=0;orthogonalLoop=1;jettySize=auto;html=1;" parent="1c8VSmIuXmgOSTZP4LNL-2" source="Wz143nNGYcCUO_f9Ym2T-103" target="Wz143nNGYcCUO_f9Ym2T-105" edge="1">
          <mxGeometry relative="1" as="geometry" />
        </mxCell>
        <mxCell id="Wz143nNGYcCUO_f9Ym2T-103" value="确定新增" style="rounded=1;whiteSpace=wrap;html=1;fillColor=#d5e8d4;strokeColor=#82b366;" parent="1c8VSmIuXmgOSTZP4LNL-2" vertex="1">
          <mxGeometry x="940" y="1450" width="130" height="30" as="geometry" />
        </mxCell>
        <mxCell id="Wz143nNGYcCUO_f9Ym2T-104" style="edgeStyle=orthogonalEdgeStyle;rounded=0;orthogonalLoop=1;jettySize=auto;html=1;entryX=-0.008;entryY=0.186;entryDx=0;entryDy=0;entryPerimeter=0;" parent="1c8VSmIuXmgOSTZP4LNL-2" source="Wz143nNGYcCUO_f9Ym2T-79" target="Wz143nNGYcCUO_f9Ym2T-96" edge="1">
          <mxGeometry relative="1" as="geometry" />
        </mxCell>
        <mxCell id="Wz143nNGYcCUO_f9Ym2T-158" style="edgeStyle=orthogonalEdgeStyle;rounded=0;orthogonalLoop=1;jettySize=auto;html=1;entryX=0;entryY=0.5;entryDx=0;entryDy=0;" parent="1c8VSmIuXmgOSTZP4LNL-2" source="Wz143nNGYcCUO_f9Ym2T-105" target="Wz143nNGYcCUO_f9Ym2T-157" edge="1">
          <mxGeometry relative="1" as="geometry" />
        </mxCell>
        <mxCell id="Wz143nNGYcCUO_f9Ym2T-105" value="入库，新增一个商品种类" style="whiteSpace=wrap;html=1;rounded=1;" parent="1c8VSmIuXmgOSTZP4LNL-2" vertex="1">
          <mxGeometry x="1290" y="1435" width="180" height="60" as="geometry" />
        </mxCell>
        <mxCell id="Wz143nNGYcCUO_f9Ym2T-107" style="edgeStyle=orthogonalEdgeStyle;rounded=0;orthogonalLoop=1;jettySize=auto;html=1;entryX=0;entryY=0.25;entryDx=0;entryDy=0;" parent="1c8VSmIuXmgOSTZP4LNL-2" source="Wz143nNGYcCUO_f9Ym2T-58" target="Wz143nNGYcCUO_f9Ym2T-68" edge="1">
          <mxGeometry relative="1" as="geometry">
            <Array as="points">
              <mxPoint x="370" y="731" />
              <mxPoint x="370" y="896" />
              <mxPoint x="340" y="896" />
              <mxPoint x="340" y="1113" />
            </Array>
          </mxGeometry>
        </mxCell>
        <mxCell id="Wz143nNGYcCUO_f9Ym2T-108" value="" style="rounded=1;whiteSpace=wrap;html=1;" parent="1c8VSmIuXmgOSTZP4LNL-2" vertex="1">
          <mxGeometry x="366" y="1590" width="250" height="370" as="geometry" />
        </mxCell>
        <mxCell id="Wz143nNGYcCUO_f9Ym2T-109" value="&lt;b&gt;&lt;font style=&quot;font-size: 18px;&quot;&gt;库存&lt;/font&gt;&lt;/b&gt;" style="text;html=1;align=center;verticalAlign=middle;whiteSpace=wrap;rounded=0;" parent="1c8VSmIuXmgOSTZP4LNL-2" vertex="1">
          <mxGeometry x="433" y="1590" width="115" height="30" as="geometry" />
        </mxCell>
        <mxCell id="Wz143nNGYcCUO_f9Ym2T-114" value="商品名称" style="rounded=0;whiteSpace=wrap;html=1;fillColor=#f5f5f5;fontColor=#333333;strokeColor=#666666;" parent="1c8VSmIuXmgOSTZP4LNL-2" vertex="1">
          <mxGeometry x="389" y="1650" width="102" height="30" as="geometry" />
        </mxCell>
        <mxCell id="Wz143nNGYcCUO_f9Ym2T-115" value="商品数量" style="rounded=0;whiteSpace=wrap;html=1;fillColor=#f5f5f5;fontColor=#333333;strokeColor=#666666;" parent="1c8VSmIuXmgOSTZP4LNL-2" vertex="1">
          <mxGeometry x="491" y="1650" width="102" height="30" as="geometry" />
        </mxCell>
        <mxCell id="Wz143nNGYcCUO_f9Ym2T-118" value="" style="group" parent="1c8VSmIuXmgOSTZP4LNL-2" vertex="1" connectable="0">
          <mxGeometry x="389" y="1680" width="204" height="30" as="geometry" />
        </mxCell>
        <mxCell id="Wz143nNGYcCUO_f9Ym2T-116" value="商品名称" style="rounded=0;whiteSpace=wrap;html=1;" parent="Wz143nNGYcCUO_f9Ym2T-118" vertex="1">
          <mxGeometry width="102" height="30" as="geometry" />
        </mxCell>
        <mxCell id="Wz143nNGYcCUO_f9Ym2T-117" value="商品数量" style="rounded=0;whiteSpace=wrap;html=1;" parent="Wz143nNGYcCUO_f9Ym2T-118" vertex="1">
          <mxGeometry x="102" width="102" height="30" as="geometry" />
        </mxCell>
        <mxCell id="Wz143nNGYcCUO_f9Ym2T-119" value="商品名称" style="rounded=0;whiteSpace=wrap;html=1;" parent="1c8VSmIuXmgOSTZP4LNL-2" vertex="1">
          <mxGeometry x="389" y="1710" width="102" height="30" as="geometry" />
        </mxCell>
        <mxCell id="Wz143nNGYcCUO_f9Ym2T-120" value="商品数量" style="rounded=0;whiteSpace=wrap;html=1;" parent="1c8VSmIuXmgOSTZP4LNL-2" vertex="1">
          <mxGeometry x="491" y="1710" width="102" height="30" as="geometry" />
        </mxCell>
        <mxCell id="Wz143nNGYcCUO_f9Ym2T-121" value="商品名称" style="rounded=0;whiteSpace=wrap;html=1;" parent="1c8VSmIuXmgOSTZP4LNL-2" vertex="1">
          <mxGeometry x="389" y="1740" width="102" height="30" as="geometry" />
        </mxCell>
        <mxCell id="Wz143nNGYcCUO_f9Ym2T-122" value="商品数量" style="rounded=0;whiteSpace=wrap;html=1;" parent="1c8VSmIuXmgOSTZP4LNL-2" vertex="1">
          <mxGeometry x="491" y="1740" width="102" height="30" as="geometry" />
        </mxCell>
        <mxCell id="Wz143nNGYcCUO_f9Ym2T-123" value="商品名称" style="rounded=0;whiteSpace=wrap;html=1;" parent="1c8VSmIuXmgOSTZP4LNL-2" vertex="1">
          <mxGeometry x="389" y="1770" width="102" height="30" as="geometry" />
        </mxCell>
        <mxCell id="Wz143nNGYcCUO_f9Ym2T-124" value="商品数量" style="rounded=0;whiteSpace=wrap;html=1;" parent="1c8VSmIuXmgOSTZP4LNL-2" vertex="1">
          <mxGeometry x="491" y="1770" width="102" height="30" as="geometry" />
        </mxCell>
        <mxCell id="Wz143nNGYcCUO_f9Ym2T-125" value="商品名称" style="rounded=0;whiteSpace=wrap;html=1;" parent="1c8VSmIuXmgOSTZP4LNL-2" vertex="1">
          <mxGeometry x="389" y="1800" width="102" height="30" as="geometry" />
        </mxCell>
        <mxCell id="Wz143nNGYcCUO_f9Ym2T-126" value="商品数量" style="rounded=0;whiteSpace=wrap;html=1;" parent="1c8VSmIuXmgOSTZP4LNL-2" vertex="1">
          <mxGeometry x="491" y="1800" width="102" height="30" as="geometry" />
        </mxCell>
        <mxCell id="Wz143nNGYcCUO_f9Ym2T-127" value="返回主页" style="rounded=1;whiteSpace=wrap;html=1;fillColor=#d5e8d4;strokeColor=#82b366;" parent="1c8VSmIuXmgOSTZP4LNL-2" vertex="1">
          <mxGeometry x="426" y="1920" width="130" height="30" as="geometry" />
        </mxCell>
        <mxCell id="Wz143nNGYcCUO_f9Ym2T-128" style="edgeStyle=orthogonalEdgeStyle;rounded=0;orthogonalLoop=1;jettySize=auto;html=1;entryX=0;entryY=0.208;entryDx=0;entryDy=0;entryPerimeter=0;" parent="1c8VSmIuXmgOSTZP4LNL-2" source="Wz143nNGYcCUO_f9Ym2T-60" target="Wz143nNGYcCUO_f9Ym2T-108" edge="1">
          <mxGeometry relative="1" as="geometry">
            <Array as="points">
              <mxPoint x="310" y="830" />
              <mxPoint x="310" y="1667" />
            </Array>
          </mxGeometry>
        </mxCell>
        <mxCell id="Wz143nNGYcCUO_f9Ym2T-133" value="" style="group" parent="1c8VSmIuXmgOSTZP4LNL-2" vertex="1" connectable="0">
          <mxGeometry x="389" y="1830" width="204" height="30" as="geometry" />
        </mxCell>
        <mxCell id="Wz143nNGYcCUO_f9Ym2T-131" value="商品名称" style="rounded=0;whiteSpace=wrap;html=1;" parent="Wz143nNGYcCUO_f9Ym2T-133" vertex="1">
          <mxGeometry width="102" height="30" as="geometry" />
        </mxCell>
        <mxCell id="Wz143nNGYcCUO_f9Ym2T-132" value="商品数量" style="rounded=0;whiteSpace=wrap;html=1;" parent="Wz143nNGYcCUO_f9Ym2T-133" vertex="1">
          <mxGeometry x="102" width="102" height="30" as="geometry" />
        </mxCell>
        <mxCell id="Wz143nNGYcCUO_f9Ym2T-134" value="商品名称" style="rounded=0;whiteSpace=wrap;html=1;" parent="1c8VSmIuXmgOSTZP4LNL-2" vertex="1">
          <mxGeometry x="389" y="1860" width="102" height="30" as="geometry" />
        </mxCell>
        <mxCell id="Wz143nNGYcCUO_f9Ym2T-135" value="商品数量" style="rounded=0;whiteSpace=wrap;html=1;" parent="1c8VSmIuXmgOSTZP4LNL-2" vertex="1">
          <mxGeometry x="491" y="1860" width="102" height="30" as="geometry" />
        </mxCell>
        <mxCell id="Wz143nNGYcCUO_f9Ym2T-136" value="数量小于配置的库存警示值的时候，&lt;br&gt;标红，提示入库" style="ellipse;shape=cloud;whiteSpace=wrap;html=1;" parent="1c8VSmIuXmgOSTZP4LNL-2" vertex="1">
          <mxGeometry x="740" y="1700" width="230" height="110" as="geometry" />
        </mxCell>
        <mxCell id="Wz143nNGYcCUO_f9Ym2T-137" style="edgeStyle=orthogonalEdgeStyle;rounded=0;orthogonalLoop=1;jettySize=auto;html=1;" parent="1c8VSmIuXmgOSTZP4LNL-2" source="Wz143nNGYcCUO_f9Ym2T-115" target="Wz143nNGYcCUO_f9Ym2T-136" edge="1">
          <mxGeometry relative="1" as="geometry">
            <Array as="points">
              <mxPoint x="542" y="1760" />
            </Array>
          </mxGeometry>
        </mxCell>
        <mxCell id="Wz143nNGYcCUO_f9Ym2T-138" value="" style="rounded=1;whiteSpace=wrap;html=1;" parent="1c8VSmIuXmgOSTZP4LNL-2" vertex="1">
          <mxGeometry x="352.5" y="20" width="250" height="370" as="geometry" />
        </mxCell>
        <mxCell id="Wz143nNGYcCUO_f9Ym2T-139" value="&lt;b&gt;&lt;font style=&quot;font-size: 18px;&quot;&gt;出货&lt;/font&gt;&lt;/b&gt;" style="text;html=1;align=center;verticalAlign=middle;whiteSpace=wrap;rounded=0;" parent="1c8VSmIuXmgOSTZP4LNL-2" vertex="1">
          <mxGeometry x="420" y="20" width="115" height="30" as="geometry" />
        </mxCell>
        <mxCell id="Wz143nNGYcCUO_f9Ym2T-141" value="选择商品" style="rounded=1;whiteSpace=wrap;html=1;fillColor=#f5f5f5;fontColor=#333333;strokeColor=#666666;" parent="1c8VSmIuXmgOSTZP4LNL-2" vertex="1">
          <mxGeometry x="392.5" y="110" width="170" height="30" as="geometry" />
        </mxCell>
        <mxCell id="Wz143nNGYcCUO_f9Ym2T-142" value="选择供货商" style="rounded=1;whiteSpace=wrap;html=1;fillColor=#f5f5f5;fontColor=#333333;strokeColor=#666666;" parent="1c8VSmIuXmgOSTZP4LNL-2" vertex="1">
          <mxGeometry x="392.5" y="60" width="170" height="30" as="geometry" />
        </mxCell>
        <mxCell id="Wz143nNGYcCUO_f9Ym2T-143" value="出货单价" style="rounded=1;whiteSpace=wrap;html=1;fillColor=#f5f5f5;fontColor=#333333;strokeColor=#666666;" parent="1c8VSmIuXmgOSTZP4LNL-2" vertex="1">
          <mxGeometry x="392.5" y="160" width="170" height="30" as="geometry" />
        </mxCell>
        <mxCell id="Wz143nNGYcCUO_f9Ym2T-144" value="出货总量" style="rounded=1;whiteSpace=wrap;html=1;fillColor=#f5f5f5;fontColor=#333333;strokeColor=#666666;" parent="1c8VSmIuXmgOSTZP4LNL-2" vertex="1">
          <mxGeometry x="392.5" y="210" width="170" height="30" as="geometry" />
        </mxCell>
        <mxCell id="Wz143nNGYcCUO_f9Ym2T-145" value="出货日期" style="rounded=1;whiteSpace=wrap;html=1;fillColor=#f5f5f5;fontColor=#333333;strokeColor=#666666;" parent="1c8VSmIuXmgOSTZP4LNL-2" vertex="1">
          <mxGeometry x="392.5" y="260" width="170" height="30" as="geometry" />
        </mxCell>
        <mxCell id="Wz143nNGYcCUO_f9Ym2T-147" value="&lt;b&gt;&lt;font style=&quot;font-size: 16px;&quot;&gt;出货总钱数&lt;/font&gt;&lt;/b&gt;" style="text;html=1;align=center;verticalAlign=middle;whiteSpace=wrap;rounded=0;" parent="1c8VSmIuXmgOSTZP4LNL-2" vertex="1">
          <mxGeometry x="426.25" y="310" width="102.5" height="30" as="geometry" />
        </mxCell>
        <mxCell id="Wz143nNGYcCUO_f9Ym2T-160" value="" style="edgeStyle=orthogonalEdgeStyle;rounded=0;orthogonalLoop=1;jettySize=auto;html=1;" parent="1c8VSmIuXmgOSTZP4LNL-2" source="Wz143nNGYcCUO_f9Ym2T-148" target="Wz143nNGYcCUO_f9Ym2T-159" edge="1">
          <mxGeometry relative="1" as="geometry" />
        </mxCell>
        <mxCell id="Wz143nNGYcCUO_f9Ym2T-148" value="确定出货" style="rounded=1;whiteSpace=wrap;html=1;fillColor=#d5e8d4;strokeColor=#82b366;" parent="1c8VSmIuXmgOSTZP4LNL-2" vertex="1">
          <mxGeometry x="412.5" y="350" width="130" height="30" as="geometry" />
        </mxCell>
        <mxCell id="Wz143nNGYcCUO_f9Ym2T-151" style="edgeStyle=orthogonalEdgeStyle;rounded=0;orthogonalLoop=1;jettySize=auto;html=1;" parent="1c8VSmIuXmgOSTZP4LNL-2" source="Wz143nNGYcCUO_f9Ym2T-149" target="Wz143nNGYcCUO_f9Ym2T-78" edge="1">
          <mxGeometry relative="1" as="geometry" />
        </mxCell>
        <mxCell id="Wz143nNGYcCUO_f9Ym2T-154" value="新增供货商" style="edgeLabel;html=1;align=center;verticalAlign=middle;resizable=0;points=[];" parent="Wz143nNGYcCUO_f9Ym2T-151" vertex="1" connectable="0">
          <mxGeometry x="-0.8738" relative="1" as="geometry">
            <mxPoint as="offset" />
          </mxGeometry>
        </mxCell>
        <mxCell id="Wz143nNGYcCUO_f9Ym2T-149" value="+" style="ellipse;whiteSpace=wrap;html=1;aspect=fixed;fillColor=#d5e8d4;strokeColor=#82b366;" parent="1c8VSmIuXmgOSTZP4LNL-2" vertex="1">
          <mxGeometry x="570" y="63.75" width="22.5" height="22.5" as="geometry" />
        </mxCell>
        <mxCell id="Wz143nNGYcCUO_f9Ym2T-150" value="+" style="ellipse;whiteSpace=wrap;html=1;aspect=fixed;fillColor=#d5e8d4;strokeColor=#82b366;" parent="1c8VSmIuXmgOSTZP4LNL-2" vertex="1">
          <mxGeometry x="570" y="113.75" width="22.5" height="22.5" as="geometry" />
        </mxCell>
        <mxCell id="Wz143nNGYcCUO_f9Ym2T-152" style="edgeStyle=orthogonalEdgeStyle;rounded=0;orthogonalLoop=1;jettySize=auto;html=1;entryX=0.88;entryY=0.25;entryDx=0;entryDy=0;entryPerimeter=0;" parent="1c8VSmIuXmgOSTZP4LNL-2" source="Wz143nNGYcCUO_f9Ym2T-150" target="Wz143nNGYcCUO_f9Ym2T-79" edge="1">
          <mxGeometry relative="1" as="geometry" />
        </mxCell>
        <mxCell id="Wz143nNGYcCUO_f9Ym2T-153" value="新增商品" style="edgeLabel;html=1;align=center;verticalAlign=middle;resizable=0;points=[];" parent="Wz143nNGYcCUO_f9Ym2T-152" vertex="1" connectable="0">
          <mxGeometry x="-0.8916" relative="1" as="geometry">
            <mxPoint as="offset" />
          </mxGeometry>
        </mxCell>
        <mxCell id="Wz143nNGYcCUO_f9Ym2T-155" value="从哪个页面进来的&lt;div&gt;回去哪个页面&lt;/div&gt;" style="whiteSpace=wrap;html=1;rounded=1;" parent="1c8VSmIuXmgOSTZP4LNL-2" vertex="1">
          <mxGeometry x="1470" y="965" width="150" height="60" as="geometry" />
        </mxCell>
        <mxCell id="Wz143nNGYcCUO_f9Ym2T-157" value="从哪个页面进来的&lt;div&gt;回去哪个页面&lt;/div&gt;" style="whiteSpace=wrap;html=1;rounded=1;" parent="1c8VSmIuXmgOSTZP4LNL-2" vertex="1">
          <mxGeometry x="1610" y="1435" width="150" height="60" as="geometry" />
        </mxCell>
        <mxCell id="Wz143nNGYcCUO_f9Ym2T-166" style="edgeStyle=orthogonalEdgeStyle;rounded=0;orthogonalLoop=1;jettySize=auto;html=1;" parent="1c8VSmIuXmgOSTZP4LNL-2" source="Wz143nNGYcCUO_f9Ym2T-159" target="Wz143nNGYcCUO_f9Ym2T-162" edge="1">
          <mxGeometry relative="1" as="geometry" />
        </mxCell>
        <mxCell id="Wz143nNGYcCUO_f9Ym2T-167" value="进入总览页面" style="edgeLabel;html=1;align=center;verticalAlign=middle;resizable=0;points=[];" parent="Wz143nNGYcCUO_f9Ym2T-166" vertex="1" connectable="0">
          <mxGeometry x="-0.2271" y="1" relative="1" as="geometry">
            <mxPoint as="offset" />
          </mxGeometry>
        </mxCell>
        <mxCell id="Wz143nNGYcCUO_f9Ym2T-159" value="入库，新增一条出货单" style="whiteSpace=wrap;html=1;rounded=1;" parent="1c8VSmIuXmgOSTZP4LNL-2" vertex="1">
          <mxGeometry x="880" y="335" width="170" height="60" as="geometry" />
        </mxCell>
        <mxCell id="Wz143nNGYcCUO_f9Ym2T-161" style="edgeStyle=orthogonalEdgeStyle;rounded=0;orthogonalLoop=1;jettySize=auto;html=1;entryX=-0.002;entryY=0.373;entryDx=0;entryDy=0;entryPerimeter=0;" parent="1c8VSmIuXmgOSTZP4LNL-2" source="Wz143nNGYcCUO_f9Ym2T-61" target="Wz143nNGYcCUO_f9Ym2T-138" edge="1">
          <mxGeometry relative="1" as="geometry">
            <Array as="points">
              <mxPoint x="533" y="540" />
              <mxPoint x="250" y="540" />
              <mxPoint x="250" y="158" />
            </Array>
          </mxGeometry>
        </mxCell>
        <mxCell id="Wz143nNGYcCUO_f9Ym2T-162" value="" style="rounded=1;whiteSpace=wrap;html=1;" parent="1c8VSmIuXmgOSTZP4LNL-2" vertex="1">
          <mxGeometry x="1193" width="250" height="370" as="geometry" />
        </mxCell>
        <mxCell id="Wz143nNGYcCUO_f9Ym2T-163" value="&lt;b&gt;&lt;font style=&quot;font-size: 18px;&quot;&gt;总览&lt;/font&gt;&lt;/b&gt;" style="text;html=1;align=center;verticalAlign=middle;whiteSpace=wrap;rounded=0;" parent="1c8VSmIuXmgOSTZP4LNL-2" vertex="1">
          <mxGeometry x="1256.5" width="115" height="30" as="geometry" />
        </mxCell>
        <mxCell id="Wz143nNGYcCUO_f9Ym2T-164" style="edgeStyle=orthogonalEdgeStyle;rounded=0;orthogonalLoop=1;jettySize=auto;html=1;" parent="1c8VSmIuXmgOSTZP4LNL-2" source="Wz143nNGYcCUO_f9Ym2T-62" target="Wz143nNGYcCUO_f9Ym2T-162" edge="1">
          <mxGeometry relative="1" as="geometry">
            <Array as="points">
              <mxPoint x="650" y="830" />
              <mxPoint x="650" y="580" />
              <mxPoint x="1315" y="580" />
            </Array>
          </mxGeometry>
        </mxCell>
        <mxCell id="Wz143nNGYcCUO_f9Ym2T-173" value="" style="group" parent="1c8VSmIuXmgOSTZP4LNL-2" vertex="1" connectable="0">
          <mxGeometry x="1218" y="100" width="200" height="30" as="geometry" />
        </mxCell>
        <mxCell id="Wz143nNGYcCUO_f9Ym2T-168" value="商品名称" style="rounded=0;whiteSpace=wrap;html=1;fillColor=#f5f5f5;fontColor=#333333;strokeColor=#666666;" parent="Wz143nNGYcCUO_f9Ym2T-173" vertex="1">
          <mxGeometry width="50" height="30" as="geometry" />
        </mxCell>
        <mxCell id="Wz143nNGYcCUO_f9Ym2T-170" value="出货价" style="rounded=0;whiteSpace=wrap;html=1;fillColor=#f5f5f5;fontColor=#333333;strokeColor=#666666;" parent="Wz143nNGYcCUO_f9Ym2T-173" vertex="1">
          <mxGeometry x="50" width="50" height="30" as="geometry" />
        </mxCell>
        <mxCell id="Wz143nNGYcCUO_f9Ym2T-171" value="出货量" style="rounded=0;whiteSpace=wrap;html=1;fillColor=#f5f5f5;fontColor=#333333;strokeColor=#666666;" parent="Wz143nNGYcCUO_f9Ym2T-173" vertex="1">
          <mxGeometry x="100" width="50" height="30" as="geometry" />
        </mxCell>
        <mxCell id="Wz143nNGYcCUO_f9Ym2T-172" value="出货额" style="rounded=0;whiteSpace=wrap;html=1;fillColor=#f5f5f5;fontColor=#333333;strokeColor=#666666;" parent="Wz143nNGYcCUO_f9Ym2T-173" vertex="1">
          <mxGeometry x="150" width="50" height="30" as="geometry" />
        </mxCell>
        <mxCell id="Wz143nNGYcCUO_f9Ym2T-174" value="" style="group" parent="1c8VSmIuXmgOSTZP4LNL-2" vertex="1" connectable="0">
          <mxGeometry x="1218" y="130" width="200" height="30" as="geometry" />
        </mxCell>
        <mxCell id="Wz143nNGYcCUO_f9Ym2T-175" value="商品名称" style="rounded=0;whiteSpace=wrap;html=1;" parent="Wz143nNGYcCUO_f9Ym2T-174" vertex="1">
          <mxGeometry width="50" height="30" as="geometry" />
        </mxCell>
        <mxCell id="Wz143nNGYcCUO_f9Ym2T-176" value="出货价" style="rounded=0;whiteSpace=wrap;html=1;" parent="Wz143nNGYcCUO_f9Ym2T-174" vertex="1">
          <mxGeometry x="50" width="50" height="30" as="geometry" />
        </mxCell>
        <mxCell id="Wz143nNGYcCUO_f9Ym2T-177" value="出货量" style="rounded=0;whiteSpace=wrap;html=1;" parent="Wz143nNGYcCUO_f9Ym2T-174" vertex="1">
          <mxGeometry x="100" width="50" height="30" as="geometry" />
        </mxCell>
        <mxCell id="Wz143nNGYcCUO_f9Ym2T-178" value="出货额" style="rounded=0;whiteSpace=wrap;html=1;" parent="Wz143nNGYcCUO_f9Ym2T-174" vertex="1">
          <mxGeometry x="150" width="50" height="30" as="geometry" />
        </mxCell>
        <mxCell id="Wz143nNGYcCUO_f9Ym2T-179" value="" style="group" parent="1c8VSmIuXmgOSTZP4LNL-2" vertex="1" connectable="0">
          <mxGeometry x="1218" y="160" width="200" height="30" as="geometry" />
        </mxCell>
        <mxCell id="Wz143nNGYcCUO_f9Ym2T-180" value="商品名称" style="rounded=0;whiteSpace=wrap;html=1;" parent="Wz143nNGYcCUO_f9Ym2T-179" vertex="1">
          <mxGeometry width="50" height="30" as="geometry" />
        </mxCell>
        <mxCell id="Wz143nNGYcCUO_f9Ym2T-181" value="出货价" style="rounded=0;whiteSpace=wrap;html=1;" parent="Wz143nNGYcCUO_f9Ym2T-179" vertex="1">
          <mxGeometry x="50" width="50" height="30" as="geometry" />
        </mxCell>
        <mxCell id="Wz143nNGYcCUO_f9Ym2T-182" value="出货量" style="rounded=0;whiteSpace=wrap;html=1;" parent="Wz143nNGYcCUO_f9Ym2T-179" vertex="1">
          <mxGeometry x="100" width="50" height="30" as="geometry" />
        </mxCell>
        <mxCell id="Wz143nNGYcCUO_f9Ym2T-183" value="出货额" style="rounded=0;whiteSpace=wrap;html=1;" parent="Wz143nNGYcCUO_f9Ym2T-179" vertex="1">
          <mxGeometry x="150" width="50" height="30" as="geometry" />
        </mxCell>
        <mxCell id="Wz143nNGYcCUO_f9Ym2T-184" value="" style="group" parent="1c8VSmIuXmgOSTZP4LNL-2" vertex="1" connectable="0">
          <mxGeometry x="1218" y="220" width="200" height="30" as="geometry" />
        </mxCell>
        <mxCell id="Wz143nNGYcCUO_f9Ym2T-185" value="商品名称" style="rounded=0;whiteSpace=wrap;html=1;" parent="Wz143nNGYcCUO_f9Ym2T-184" vertex="1">
          <mxGeometry width="50" height="30" as="geometry" />
        </mxCell>
        <mxCell id="Wz143nNGYcCUO_f9Ym2T-186" value="出货价" style="rounded=0;whiteSpace=wrap;html=1;" parent="Wz143nNGYcCUO_f9Ym2T-184" vertex="1">
          <mxGeometry x="50" width="50" height="30" as="geometry" />
        </mxCell>
        <mxCell id="Wz143nNGYcCUO_f9Ym2T-187" value="出货量" style="rounded=0;whiteSpace=wrap;html=1;" parent="Wz143nNGYcCUO_f9Ym2T-184" vertex="1">
          <mxGeometry x="100" width="50" height="30" as="geometry" />
        </mxCell>
        <mxCell id="Wz143nNGYcCUO_f9Ym2T-188" value="出货额" style="rounded=0;whiteSpace=wrap;html=1;" parent="Wz143nNGYcCUO_f9Ym2T-184" vertex="1">
          <mxGeometry x="150" width="50" height="30" as="geometry" />
        </mxCell>
        <mxCell id="Wz143nNGYcCUO_f9Ym2T-189" value="" style="group" parent="1c8VSmIuXmgOSTZP4LNL-2" vertex="1" connectable="0">
          <mxGeometry x="1218" y="190" width="200" height="30" as="geometry" />
        </mxCell>
        <mxCell id="Wz143nNGYcCUO_f9Ym2T-190" value="商品名称" style="rounded=0;whiteSpace=wrap;html=1;" parent="Wz143nNGYcCUO_f9Ym2T-189" vertex="1">
          <mxGeometry width="50" height="30" as="geometry" />
        </mxCell>
        <mxCell id="Wz143nNGYcCUO_f9Ym2T-191" value="出货价" style="rounded=0;whiteSpace=wrap;html=1;" parent="Wz143nNGYcCUO_f9Ym2T-189" vertex="1">
          <mxGeometry x="50" width="50" height="30" as="geometry" />
        </mxCell>
        <mxCell id="Wz143nNGYcCUO_f9Ym2T-192" value="出货量" style="rounded=0;whiteSpace=wrap;html=1;" parent="Wz143nNGYcCUO_f9Ym2T-189" vertex="1">
          <mxGeometry x="100" width="50" height="30" as="geometry" />
        </mxCell>
        <mxCell id="Wz143nNGYcCUO_f9Ym2T-193" value="出货额" style="rounded=0;whiteSpace=wrap;html=1;" parent="Wz143nNGYcCUO_f9Ym2T-189" vertex="1">
          <mxGeometry x="150" width="50" height="30" as="geometry" />
        </mxCell>
        <mxCell id="Wz143nNGYcCUO_f9Ym2T-194" value="" style="group" parent="1c8VSmIuXmgOSTZP4LNL-2" vertex="1" connectable="0">
          <mxGeometry x="1218" y="250" width="200" height="30" as="geometry" />
        </mxCell>
        <mxCell id="Wz143nNGYcCUO_f9Ym2T-195" value="商品名称" style="rounded=0;whiteSpace=wrap;html=1;" parent="Wz143nNGYcCUO_f9Ym2T-194" vertex="1">
          <mxGeometry width="50" height="30" as="geometry" />
        </mxCell>
        <mxCell id="Wz143nNGYcCUO_f9Ym2T-196" value="出货价" style="rounded=0;whiteSpace=wrap;html=1;" parent="Wz143nNGYcCUO_f9Ym2T-194" vertex="1">
          <mxGeometry x="50" width="50" height="30" as="geometry" />
        </mxCell>
        <mxCell id="Wz143nNGYcCUO_f9Ym2T-197" value="出货量" style="rounded=0;whiteSpace=wrap;html=1;" parent="Wz143nNGYcCUO_f9Ym2T-194" vertex="1">
          <mxGeometry x="100" width="50" height="30" as="geometry" />
        </mxCell>
        <mxCell id="Wz143nNGYcCUO_f9Ym2T-198" value="出货额" style="rounded=0;whiteSpace=wrap;html=1;" parent="Wz143nNGYcCUO_f9Ym2T-194" vertex="1">
          <mxGeometry x="150" width="50" height="30" as="geometry" />
        </mxCell>
        <mxCell id="Wz143nNGYcCUO_f9Ym2T-199" value="" style="group" parent="1c8VSmIuXmgOSTZP4LNL-2" vertex="1" connectable="0">
          <mxGeometry x="1218" y="280" width="200" height="30" as="geometry" />
        </mxCell>
        <mxCell id="Wz143nNGYcCUO_f9Ym2T-200" value="商品名称" style="rounded=0;whiteSpace=wrap;html=1;" parent="Wz143nNGYcCUO_f9Ym2T-199" vertex="1">
          <mxGeometry width="50" height="30" as="geometry" />
        </mxCell>
        <mxCell id="Wz143nNGYcCUO_f9Ym2T-201" value="出货价" style="rounded=0;whiteSpace=wrap;html=1;" parent="Wz143nNGYcCUO_f9Ym2T-199" vertex="1">
          <mxGeometry x="50" width="50" height="30" as="geometry" />
        </mxCell>
        <mxCell id="Wz143nNGYcCUO_f9Ym2T-202" value="出货量" style="rounded=0;whiteSpace=wrap;html=1;" parent="Wz143nNGYcCUO_f9Ym2T-199" vertex="1">
          <mxGeometry x="100" width="50" height="30" as="geometry" />
        </mxCell>
        <mxCell id="Wz143nNGYcCUO_f9Ym2T-203" value="出货额" style="rounded=0;whiteSpace=wrap;html=1;" parent="Wz143nNGYcCUO_f9Ym2T-199" vertex="1">
          <mxGeometry x="150" width="50" height="30" as="geometry" />
        </mxCell>
        <mxCell id="Wz143nNGYcCUO_f9Ym2T-204" value="" style="group" parent="1c8VSmIuXmgOSTZP4LNL-2" vertex="1" connectable="0">
          <mxGeometry x="1218" y="310" width="200" height="30" as="geometry" />
        </mxCell>
        <mxCell id="Wz143nNGYcCUO_f9Ym2T-205" value="商品名称" style="rounded=0;whiteSpace=wrap;html=1;" parent="Wz143nNGYcCUO_f9Ym2T-204" vertex="1">
          <mxGeometry width="50" height="30" as="geometry" />
        </mxCell>
        <mxCell id="Wz143nNGYcCUO_f9Ym2T-206" value="出货价" style="rounded=0;whiteSpace=wrap;html=1;" parent="Wz143nNGYcCUO_f9Ym2T-204" vertex="1">
          <mxGeometry x="50" width="50" height="30" as="geometry" />
        </mxCell>
        <mxCell id="Wz143nNGYcCUO_f9Ym2T-207" value="出货量" style="rounded=0;whiteSpace=wrap;html=1;" parent="Wz143nNGYcCUO_f9Ym2T-204" vertex="1">
          <mxGeometry x="100" width="50" height="30" as="geometry" />
        </mxCell>
        <mxCell id="Wz143nNGYcCUO_f9Ym2T-208" value="出货额" style="rounded=0;whiteSpace=wrap;html=1;" parent="Wz143nNGYcCUO_f9Ym2T-204" vertex="1">
          <mxGeometry x="150" width="50" height="30" as="geometry" />
        </mxCell>
        <mxCell id="Wz143nNGYcCUO_f9Ym2T-214" value="搜索商品名称" style="rounded=1;whiteSpace=wrap;html=1;fillColor=#f5f5f5;fontColor=#333333;strokeColor=#666666;" parent="1c8VSmIuXmgOSTZP4LNL-2" vertex="1">
          <mxGeometry x="1218" y="33.75" width="192" height="30" as="geometry" />
        </mxCell>
        <mxCell id="Wz143nNGYcCUO_f9Ym2T-215" value="昨天" style="rounded=1;whiteSpace=wrap;html=1;fillColor=#f5f5f5;fontColor=#333333;strokeColor=#666666;" parent="1c8VSmIuXmgOSTZP4LNL-2" vertex="1">
          <mxGeometry x="1216.5" y="76" width="40" height="14" as="geometry" />
        </mxCell>
        <mxCell id="Wz143nNGYcCUO_f9Ym2T-216" value="过去7天" style="rounded=1;whiteSpace=wrap;html=1;fillColor=#f5f5f5;fontColor=#333333;strokeColor=#666666;" parent="1c8VSmIuXmgOSTZP4LNL-2" vertex="1">
          <mxGeometry x="1270" y="76" width="60" height="14" as="geometry" />
        </mxCell>
        <mxCell id="Wz143nNGYcCUO_f9Ym2T-218" value="过去30天" style="rounded=1;whiteSpace=wrap;html=1;fillColor=#f5f5f5;fontColor=#333333;strokeColor=#666666;" parent="1c8VSmIuXmgOSTZP4LNL-2" vertex="1">
          <mxGeometry x="1348" y="76" width="70" height="14" as="geometry" />
        </mxCell>
      </root>
    </mxGraphModel>
  </diagram>
</mxfile>
